# xmcd CD database file
#
# Track frame offsets:
#	150
#	21355
#	57316
#	80597
#	109062
#	159933
#	181095
#	212544
#	229530
#
# Disc length: 3504 seconds
#
# Revision: 0
# Processed by: cddbd v1.5.2PL0 Copyright (c) Steve Scherf et al.
# Submitted via: CDex 1.51
#
DISCID=670dae09
DTITLE=Juke Joints - 20 years CD 2
DYEAR=2003
DGENRE=Blues
TTITLE0=My Baby
TTITLE1=Moving Up In Class
TTITLE2=Good Morning Blues
TTITLE3=Ready For The Blues
TTITLE4=Janie On My Mind
TTITLE5=Low Down Girl
TTITLE6=Rock This Town
TTITLE7=Going To My Hometown
TTITLE8=Radio Interview [radio kilkenny]
EXTD=YEAR: 2003
EXTT0=
EXTT1=
EXTT2=
EXTT3=
EXTT4=
EXTT5=
EXTT6=
EXTT7=
EXTT8=
PLAYORDER=
